<svg xmlns="http://www.w3.org/2000/svg" viewBox="0 0 31.059 31.059" width="512" height="512"><path d="M15.529 31.059C6.966 31.059 0 24.092 0 15.529S6.966 0 15.529 0c8.563 0 15.529 6.967 15.529 15.529s-6.966 15.53-15.529 15.53zm0-29.284c-7.585 0-13.755 6.17-13.755 13.754s6.17 13.755 13.755 13.755c7.584 0 13.754-6.171 13.754-13.755 0-7.584-6.17-13.754-13.754-13.754z" data-original="#010002" class="active-path" data-old_color="#010002" fill="#D9BF8F"/><path d="M12.749 24.944a.973.973 0 0 1-.946-1.206l2.271-9.24a.973.973 0 0 1 1.894.453c-.123.539-.338 2.26.281 3.035.146.184.418.428 1.097.428 1.434 0 2.951-2.326 2.951-4.524 0-.714-.161-1.727-.925-2.491-.745-.746-1.915-1.123-3.479-1.123-4.135 0-4.927 2.609-5.071 3.41-.222 1.234.215 2.43.994 2.72a.973.973 0 1 1-.679 1.825c-1.69-.629-2.63-2.686-2.232-4.891.416-2.312 2.496-5.013 6.988-5.013 2.099 0 3.733.569 4.857 1.694.978.979 1.495 2.316 1.495 3.868 0 3.056-2.095 6.472-4.899 6.472-1.246 0-2.014-.498-2.466-.982l-1.185 4.824a.978.978 0 0 1-.946.741z" data-original="#010002" class="active-path" data-old_color="#010002" fill="#D9BF8F"/></svg>